<?xml version="1.0" standalone="no"?>
<!DOCTYPE svg PUBLIC "-//W3C//DTD SVG 20010904//EN"
 "http://www.w3.org/TR/2001/REC-SVG-20010904/DTD/svg10.dtd">
<svg version="1.0" xmlns="http://www.w3.org/2000/svg"
 width="500.000000pt" height="500.000000pt" viewBox="0 0 500.000000 500.000000"
 preserveAspectRatio="xMidYMid meet">

<g transform="translate(0.000000,500.000000) scale(0.100000,-0.100000)"
fill="#000000" stroke="none">
<path d="M2265 3524 c-38 -8 -110 -35 -160 -59 -222 -107 -368 -325 -382 -572
-7 -103 -8 -101 66 -87 29 6 31 9 31 54 0 57 20 160 31 160 4 0 10 -9 14 -20
7 -23 71 -76 138 -115 42 -24 54 -27 85 -19 29 7 38 15 40 34 5 35 20 50 52
50 37 0 56 25 70 93 9 45 21 69 56 108 24 27 44 53 44 57 0 4 -9 25 -21 46
-14 28 -19 49 -15 71 5 26 1 39 -20 64 -24 29 -24 31 -7 38 29 12 214 8 258
-5 36 -10 40 -15 41 -46 1 -43 26 -83 67 -104 17 -10 42 -27 55 -40 l24 -23
69 69 c38 38 69 73 69 78 0 13 -87 77 -146 107 -134 68 -318 92 -459 61z"/>
<path d="M2867 3473 c-19 -18 2 -44 83 -108 70 -55 87 -72 77 -82 -6 -6 -48
-43 -92 -81 l-79 -69 -48 20 c-39 16 -53 18 -73 9 -14 -7 -25 -15 -25 -19 0
-5 26 -21 58 -38 l57 -30 3 -67 c3 -67 3 -67 27 -56 25 11 35 34 35 86 0 32 3
35 106 84 58 27 107 48 109 46 3 -2 17 -60 31 -129 14 -68 30 -128 34 -132 4
-5 17 -6 28 -3 15 5 24 30 46 134 58 269 55 260 86 278 34 21 73 86 64 108 -9
22 -80 21 -127 -3 l-37 -19 -161 39 c-165 40 -191 44 -202 32z m491 -55 c17
-17 15 -42 -7 -62 -18 -16 -19 -16 -25 8 -3 14 -16 31 -27 37 -17 9 -19 13 -8
20 20 12 53 11 67 -3z"/>
<path d="M2565 3043 c-223 -154 -514 -250 -837 -278 -74 -6 -78 -5 -103 19
l-25 25 -6 -26 c-29 -116 183 -170 499 -128 188 25 277 55 535 182 l152 75 0
69 0 69 -56 25 c-31 14 -62 25 -68 24 -6 0 -47 -25 -91 -56z"/>
<path d="M2958 2861 c-64 -37 -162 -86 -217 -108 -98 -39 -99 -40 -88 -64 14
-27 51 -49 85 -49 33 0 45 -39 46 -148 1 -88 0 -95 -24 -114 -37 -30 -129 -74
-196 -94 -58 -17 -225 -26 -239 -13 -9 10 22 78 39 85 26 10 27 35 1 66 -35
41 -31 67 19 135 24 33 49 70 56 82 10 21 10 22 -8 17 -43 -14 -172 -35 -247
-41 -44 -3 -95 -8 -114 -11 -32 -5 -33 -7 -28 -43 7 -56 31 -85 98 -121 54
-28 60 -35 55 -56 -4 -14 0 -37 10 -55 l16 -32 -26 7 c-36 9 -122 61 -178 108
-26 22 -71 74 -99 116 l-51 77 -54 5 c-30 3 -54 5 -54 4 0 -14 42 -94 77 -146
65 -98 161 -182 268 -233 121 -58 178 -70 315 -69 95 1 129 6 195 27 85 28
172 76 243 134 104 85 198 245 226 385 20 96 22 218 4 217 -7 -1 -66 -31 -130
-68z"/>
<path d="M1267 1466 c-4 -10 -3 -14 2 -11 6 3 14 -3 20 -12 6 -10 11 -13 11
-7 0 5 -6 18 -13 28 -13 17 -14 18 -20 2z"/>
<path d="M1560 1430 l0 -50 33 1 c30 2 30 2 5 6 -19 3 -28 10 -28 23 0 13 9
20 28 23 l27 4 -27 2 c-17 0 -28 7 -28 15 0 8 12 17 28 19 25 4 25 4 -5 6
l-33 1 0 -50z"/>
<path d="M1702 1428 c1 -52 2 -52 5 -10 l4 44 22 -18 c18 -16 18 -14 -2 9 -14
15 -26 27 -28 27 -2 0 -2 -24 -1 -52z"/>
<path d="M1783 1445 c0 -22 2 -30 4 -17 2 12 2 30 0 40 -3 9 -5 -1 -4 -23z"/>
<path d="M1888 1469 c-10 -5 -18 -15 -18 -22 0 -8 3 -9 8 -1 4 6 16 16 27 22
11 6 16 11 10 11 -5 0 -18 -4 -27 -10z"/>
<path d="M2028 1473 c6 -2 12 -22 12 -43 0 -21 -6 -41 -12 -43 -7 -3 1 -5 17
-5 17 0 24 2 18 5 -7 2 -13 22 -13 43 0 21 6 41 13 43 6 3 -1 5 -18 5 -16 0
-24 -2 -17 -5z"/>
<path d="M2180 1477 c0 -3 -6 -20 -14 -39 l-15 -34 35 4 c37 4 40 9 23 32 -9
13 -10 12 -5 -2 4 -13 0 -18 -14 -18 -24 0 -26 13 -5 34 9 9 11 17 5 21 -5 3
-10 4 -10 2z"/>
<path d="M2390 1430 c0 -48 1 -50 28 -49 23 2 24 2 5 6 -19 4 -23 11 -23 43 0
32 4 39 23 43 19 4 18 4 -5 6 -27 1 -28 -1 -28 -49z"/>
<path d="M2550 1430 l0 -50 38 2 c36 1 36 1 5 5 -43 6 -47 40 -5 46 l27 4 -27
2 c-40 2 -36 29 5 34 31 4 31 4 -5 5 l-38 2 0 -50z"/>
<path d="M2940 1476 c0 -10 28 -13 41 -5 10 6 7 9 -13 9 -16 0 -28 -2 -28 -4z"/>
<path d="M3090 1474 c0 -3 7 -12 15 -20 16 -17 18 -14 9 10 -6 15 -24 23 -24
10z"/>
<path d="M3232 1464 c-12 -8 -22 -24 -22 -34 0 -19 35 -50 55 -50 5 1 -2 8
-17 16 -16 8 -28 23 -28 34 0 11 12 26 28 34 15 8 22 15 17 16 -6 0 -21 -7
-33 -16z"/>
<path d="M3380 1430 l0 -50 38 2 c36 1 36 1 5 5 -43 6 -47 40 -5 46 l27 4 -27
2 c-40 2 -36 29 5 34 31 4 31 4 -5 5 l-38 2 0 -50z"/>
<path d="M3530 1472 c0 -4 20 -28 45 -52 l45 -44 -2 54 -1 55 -6 -44 -6 -44
-37 41 c-21 23 -38 38 -38 34z"/>
<path d="M1400 1456 c-14 -18 -10 -58 8 -64 11 -3 11 -1 0 17 -10 17 -10 25 0
41 14 23 10 27 -8 6z"/>
<path d="M2461 1453 c12 -20 12 -26 0 -45 -13 -21 -13 -22 2 -9 10 7 17 21 17
31 0 10 -7 24 -17 31 -15 13 -15 12 -2 -8z"/>
<path d="M2780 1465 c0 -5 5 -17 10 -25 5 -8 10 -10 10 -5 0 6 -5 17 -10 25
-5 8 -10 11 -10 5z"/>
<path d="M2846 1455 c-9 -26 -7 -32 5 -12 6 10 9 21 6 23 -2 3 -7 -2 -11 -11z"/>
<path d="M1453 1423 c9 -2 23 -2 30 0 6 3 -1 5 -18 5 -16 0 -22 -2 -12 -5z"/>
<path d="M3065 1411 c-3 -8 -3 -16 0 -19 3 -3 5 0 5 6 0 19 51 14 67 -5 12
-16 12 -15 3 7 -8 19 -18 25 -40 25 -17 0 -32 -6 -35 -14z"/>
<path d="M3283 1423 c19 -5 23 -19 7 -26 -6 -3 -5 -4 2 -3 7 1 14 10 16 19 3
12 -3 17 -20 16 -17 -1 -18 -3 -5 -6z"/>
<path d="M3749 1421 c8 -5 10 -14 6 -22 -6 -11 -5 -11 5 -2 14 12 6 33 -13 33
-8 0 -7 -3 2 -9z"/>
<path d="M1236 1404 c-9 -24 -7 -31 5 -11 5 9 21 17 34 17 13 0 29 -8 35 -17
11 -17 11 -17 6 0 -3 10 -6 21 -6 23 0 2 -15 4 -34 4 -22 0 -36 -6 -40 -16z"/>
<path d="M1764 1401 c20 -22 26 -25 26 -13 0 4 -10 13 -22 21 -23 14 -23 14
-4 -8z"/>
<path d="M1870 1411 c0 -13 39 -35 48 -27 3 3 0 6 -6 6 -6 0 -18 7 -26 16 -9
8 -16 11 -16 5z"/>
<path d="M2810 1390 c0 -5 5 -10 10 -10 6 0 10 5 10 10 0 6 -4 10 -10 10 -5 0
-10 -4 -10 -10z"/>
<path d="M2949 1389 c-10 -6 -7 -9 14 -9 29 0 35 5 14 13 -8 3 -20 1 -28 -4z"/>
</g>
</svg>
